# xmcd CD database file
#
# Track frame offsets:
#	182
#	17425
#	36352
#	46810
#	61232
#	75420
#	88875
#	101180
#	117682
#	130522
#	142660
#	154080
#	166372
#	178757
#
# Disc length: 2542 seconds
#
# Revision: 0
# Processed by: cddbd v1.4PL0 Copyright (c) Steve Scherf et al.
# Submitted via: CDex 1.50Beta7
#
DISCID=af09ec0e
DTITLE=SERGIO ENDRIGO - NICO FIDENGO - SÉRIE DOIS ASTROS
DYEAR=1900
DGENRE=Blues
TTITLE0=IO CHE AMO SOLO TE - Sergio Endrigo
TTITLE1=LEGATA A UN GRANELLO DI SABBIA -Nico Fidenco
TTITLE2=TI AMO - Sergio Endrigo
TTITLE3=A CASA DI IRENE - Nico Fidenco
TTITLE4=ANNAMARIA - Sergio Endrigo
TTITLE5=L'UOMO CHE NON SAPEVA AMARE - Nico Fidenco
TTITLE6=SE LE COSE STANO COSI - Sergio Endrigo
TTITLE7=LA VOGLIA DI BALLARE - Nico Fidenco
TTITLE8=ERA D'ESTATE - Sergio Endrigo
TTITLE9=SE ME PERDERAI - ico Fidenco
TTITLE10=VIVA MADDALENA - Sergio Endrigo
TTITLE11=COME NASCE UN AMORE - Nico Fidenco
TTITLE12=ARIA DI NEVE - Sergio Endrigo
TTITLE13=CON TE SULLA SPIAGGIA - Nico Fidenco
EXTD=
EXTT0=
EXTT1=
EXTT2=
EXTT3=
EXTT4=
EXTT5=
EXTT6=
EXTT7=
EXTT8=
EXTT9=
EXTT10=
EXTT11=
EXTT12=
EXTT13=
PLAYORDER=
